# xmcd
#
# Track frame offsets: 
#        150
#        10612
#        28562
#        52260
#        70665
#        92097
#        112117
#        156327
#        187447
#        208504
#        223936
#        255144
#        284569
#        298952
#
# Disc length: 4369 seconds
#
# Revision: 0
# Processed by: cddbd v1.5.2PL0 Copyright (c) Steve Scherf et al.
# Submitted via: ExactAudioCopy v1.3
#
DISCID=dd110f0e
DTITLE=Sugar Blue - Best Streams
DYEAR=2019
DGENRE=Blues
TTITLE0=Another Man Done Gone
TTITLE1=Don’t Start Me Talkin
TTITLE2=Help Me
TTITLE3=Key to the Highway
TTITLE4=Cold Blooded Man
TTITLE5=That’s Allright
TTITLE6=Devil Woman
TTITLE7=Dark and Hungry
TTITLE8=War Zone
TTITLE9=Pontiac Blues
TTITLE10=Who’s Been Talking
TTITLE11=Secret Lover
TTITLE12=Shed No Tears
TTITLE13=Begging the Girl to Go
EXTD=
EXTT0=
EXTT1=
EXTT2=
EXTT3=
EXTT4=
EXTT5=
EXTT6=
EXTT7=
EXTT8=
EXTT9=
EXTT10=
EXTT11=
EXTT12=
EXTT13=
PLAYORDER=
